<?xml version="1.0" encoding="utf-8"?>
<!-- Generator: Adobe Illustrator 24.1.0, SVG Export Plug-In . SVG Version: 6.00 Build 0)  -->
<svg version="1.1" id="图层_1" xmlns="http://www.w3.org/2000/svg" xmlns:xlink="http://www.w3.org/1999/xlink" x="0px" y="0px"
	 viewBox="0 0 593 194" style="enable-background:new 0 0 593 194;" xml:space="preserve">
<style type="text/css">
	.st0{fill:#3E3A39;}
	.st1{fill:#FF4848;}
	.st2{fill:#FFFFFF;}
</style>
<g>
	<g>
		<path id="XMLID_3808_" class="st0" d="M179.96,115.92c0,0,2.1-10.48,14.2-10.01C194.16,105.91,193.46,114.29,179.96,115.92z"/>
		<path id="XMLID_3804_" class="st0" d="M149.74,115.92c0,0-2.1-10.48-14.2-10.01C135.54,105.91,136.24,114.29,149.74,115.92z"/>
		<path id="XMLID_3797_" class="st1" d="M201.95,114.85l21.56-6.74L205.32,86.9c0,0,17.99-4.5,4.08-38.28
			c-1.25-3.03-2.22-6.18-2.84-9.4c-0.33-1.74-0.57-3.57-0.57-5.2c0,0-24.25,22.57-26.61,38.06c0,0-11.12-4.04-14.48-0.67
			c-3.37-3.37-14.48,0.67-14.48,0.67c-2.36-15.49-26.61-38.06-26.61-38.06c0,1.62-0.24,3.46-0.57,5.2c-0.61,3.22-1.59,6.37-2.84,9.4
			c-13.91,33.79,4.08,38.28,4.08,38.28l-18.19,21.22l21.56,6.74l-18.19-1.55l15.49,6.26h-9.09c16.84,6.4,29.98,27.96,29.98,27.96
			l8.31,5.49l0.34-0.3c3.1-2.75,6.47-4.14,10.02-4.14c0.06,0,0.13,0,0.19,0c0.06,0,0.12,0,0.19,0c3.55,0,6.93,1.39,10.02,4.14
			l0.34,0.3l8.31-5.49c0,0,13.14-21.56,29.98-27.96h-9.09l15.49-6.26L201.95,114.85z M127.52,73.59c0,0-1.01,5.22,0,7.24
			c0,0-10.78-1.35-3.71-22.9l3.37-11.79c0,0,16.56,13.47,16.87,27.28c0,0-3.39-0.34-4.41-3.71v5.73l-6.62-4.38c0,0-1.57,4.38,0,6.4
			C134.59,79.49,127.52,73.59,127.52,73.59z M157.46,133.46c-0.08,1.77-0.23,3.44-0.41,4.98c-0.17,1.54-0.39,2.94-0.6,4.17
			c-0.21,1.24-0.43,2.31-0.63,3.18c-0.19,0.88-0.37,1.56-0.49,2.03c-0.12,0.47-0.2,0.71-0.2,0.71s0.02-0.26,0.07-0.73
			c-0.1-10.32-6.73-18.79-11.17-23.31c-1.74-1.77-3.69-3.31-5.76-4.69c-4-2.66-7.07-6.75-8.05-11.49
			c-0.6-2.88-1.39-10.03,3.15-10.21c0.9-0.03,2.01-0.03,3.27,0.08c1.26,0.13,2.69,0.35,4.21,0.81c1.52,0.44,3.13,1.11,4.69,2.09
			c1.56,0.97,3.08,2.21,4.43,3.71c0.66,0.76,1.3,1.56,1.87,2.42c0.3,0.42,0.56,0.87,0.83,1.31c0.26,0.45,0.51,0.91,0.75,1.37
			c0.95,1.86,1.71,3.85,2.3,5.87c0.58,2.02,1.01,4.08,1.29,6.11c0.29,2.03,0.45,4.04,0.52,5.99
			C157.58,129.81,157.54,131.69,157.46,133.46z M202.63,46.14L206,57.93c7.07,21.56-3.71,22.9-3.71,22.9c1.01-2.02,0-7.24,0-7.24
			s-7.07,5.89-5.51,3.87c1.57-2.02,0-6.4,0-6.4l-6.62,4.38v-5.73c-1.01,3.37-4.41,3.71-4.41,3.71
			C186.07,59.61,202.63,46.14,202.63,46.14z M199.59,108.31c-0.99,4.74-4.06,8.83-8.05,11.49c-2.07,1.38-4.02,2.92-5.76,4.69
			c-4.44,4.52-11.07,12.99-11.17,23.31c0.04,0.48,0.07,0.73,0.07,0.73s-0.08-0.25-0.2-0.71c-0.12-0.47-0.3-1.15-0.49-2.03
			c-0.19-0.88-0.42-1.95-0.63-3.18c-0.21-1.24-0.43-2.63-0.6-4.17c-0.18-1.54-0.33-3.21-0.41-4.98c-0.08-1.77-0.12-3.65-0.05-5.59
			c0.06-1.94,0.23-3.95,0.52-5.99c0.28-2.04,0.71-4.09,1.29-6.11c0.58-2.02,1.35-4,2.3-5.87c0.24-0.46,0.49-0.92,0.75-1.37
			c0.27-0.44,0.54-0.89,0.83-1.31c0.57-0.86,1.21-1.66,1.87-2.42c1.34-1.5,2.86-2.75,4.43-3.71c1.56-0.98,3.17-1.65,4.69-2.09
			c1.52-0.46,2.95-0.67,4.21-0.81c1.26-0.11,2.37-0.12,3.27-0.08C200.98,98.27,200.19,105.42,199.59,108.31z"/>
		<path id="XMLID_3795_" class="st0" d="M155.81,153.98l9.09,6.01l9.09-6.01c-3.22-2.85-6.35-3.76-9.09-3.72
			C162.16,150.22,159.03,151.12,155.81,153.98z"/>
		<path class="st2" d="M165.09,112.32c0.49-8.46,1.99-21.19,6.58-21.4l8.97,0.21c2.04,0.05,3.71-1.59,3.71-3.63v0
			c0-0.01,0-0.01,0-0.02c-0.16-0.81-0.81-1.44-1.61-1.63c-5.2-1.28-11.28-2.01-17.77-2.01c-6.5,0-12.57,0.73-17.77,2.01
			c-0.8,0.2-1.45,0.82-1.61,1.63l0,0.02v0c0,2.04,1.68,3.67,3.71,3.63l8.97-0.21c4.59,0.21,6.09,12.95,6.58,21.4
			c0.04,0,0.08,0,0.13,0S165.05,112.32,165.09,112.32z"/>
	</g>
	<g>
		<path d="M290.69,75.58v5.58h-14.28v37.26h-6.48V81.16h-14.34v-5.58H290.69z"/>
		<path d="M305.09,75.58l14.94,34.32h0.18l14.88-34.32h7.74v42.84h-6.54v-30.6h-0.24l-13.14,30.6h-5.64l-13.14-30.6h-0.24v30.6
			h-6.54V75.58H305.09z"/>
		<path d="M360.47,75.58l14.94,34.32h0.18l14.88-34.32h7.74v42.84h-6.54v-30.6h-0.24l-13.14,30.6h-5.64l-13.14-30.6h-0.24v30.6
			h-6.54V75.58H360.47z"/>
		<path d="M434.8,77.92c3,2.22,4.68,5.64,5.1,10.32h-6.48c-0.6-2.76-1.68-4.8-3.36-6c-1.68-1.26-4.08-1.86-7.32-1.86
			c-2.82,0-4.98,0.42-6.48,1.26c-1.86,0.96-2.76,2.52-2.76,4.68c0,1.92,1.02,3.42,3.18,4.56c0.96,0.54,3.42,1.44,7.44,2.64
			c5.76,1.8,9.54,3.18,11.22,4.2c3.66,2.22,5.52,5.28,5.52,9.24c0,3.84-1.5,6.84-4.5,9.06c-3,2.16-7.2,3.24-12.6,3.24
			c-5.22,0-9.3-1.08-12.24-3.12c-3.54-2.52-5.46-6.48-5.82-11.88h6.48c0.48,3.36,1.68,5.82,3.6,7.26c1.74,1.32,4.38,1.98,7.98,1.98
			c3.24,0,5.82-0.6,7.74-1.68s2.88-2.58,2.88-4.5c0-2.4-1.38-4.26-4.08-5.64c-0.96-0.48-3.78-1.44-8.52-2.88
			c-5.28-1.68-8.52-2.82-9.84-3.54c-3.3-1.98-4.92-4.86-4.92-8.58c0-3.78,1.56-6.72,4.74-8.88c3-2.04,6.78-3.06,11.34-3.06
			C428.08,74.74,431.99,75.76,434.8,77.92z"/>
		<path d="M483.94,75.58L464.98,94l21.72,24.42h-8.76l-17.4-20.16l-5.58,5.34v14.82h-6.54V75.58h6.54v20.7l20.7-20.7H483.94z"/>
	</g>
</g>
</svg>
